<mxfile host="app.diagrams.net" agent="Mozilla/5.0 (Windows NT 10.0; Win64; x64) AppleWebKit/537.36 (KHTML, like Gecko) Chrome/128.0.0.0 Safari/537.36" version="24.7.10">
  <diagram id="yPxyJZ8AM_hMuL3Unpa9" name="gitflow">
    <mxGraphModel dx="1434" dy="772" grid="1" gridSize="10" guides="1" tooltips="1" connect="1" arrows="1" fold="1" page="1" pageScale="1" pageWidth="1169" pageHeight="827" math="0" shadow="0">
      <root>
        <mxCell id="0" />
        <mxCell id="1" parent="0" />
        <mxCell id="zFJey2Iph64AuXWHVvu--181" value="1.0.0" style="ellipse;whiteSpace=wrap;html=1;aspect=fixed;fillColor=#dae8fc;strokeColor=#6c8ebf;fontStyle=1;labelPosition=center;verticalLabelPosition=top;align=center;verticalAlign=bottom;fontColor=#0066CC;" vertex="1" parent="1">
          <mxGeometry x="310" y="430" width="20" height="20" as="geometry" />
        </mxCell>
        <mxCell id="zFJey2Iph64AuXWHVvu--182" value="" style="endArrow=none;dashed=1;html=1;fillColor=#dae8fc;strokeColor=#6c8ebf;entryX=0;entryY=0.5;entryDx=0;entryDy=0;exitX=1;exitY=0.5;exitDx=0;exitDy=0;" edge="1" parent="1" source="zFJey2Iph64AuXWHVvu--217" target="zFJey2Iph64AuXWHVvu--181">
          <mxGeometry width="50" height="50" relative="1" as="geometry">
            <mxPoint x="70" y="440" as="sourcePoint" />
            <mxPoint x="270" y="440" as="targetPoint" />
            <Array as="points" />
          </mxGeometry>
        </mxCell>
        <mxCell id="zFJey2Iph64AuXWHVvu--184" value="1. Create release branch off main branch&lt;div&gt;2. Create feature&lt;span style=&quot;background-color: initial;&quot;&gt;&amp;nbsp;branch off release branch&lt;/span&gt;&lt;/div&gt;&lt;div&gt;3. PR feature branch into release branch&lt;/div&gt;&lt;div&gt;4. PR release branch into main branch&lt;/div&gt;&lt;div&gt;5. Create GitHub release with associated tag&lt;/div&gt;" style="text;html=1;align=left;verticalAlign=middle;whiteSpace=wrap;rounded=0;" vertex="1" parent="1">
          <mxGeometry x="694" y="430" width="270" height="140" as="geometry" />
        </mxCell>
        <mxCell id="zFJey2Iph64AuXWHVvu--185" value="" style="endArrow=none;dashed=1;html=1;fillColor=#d5e8d4;strokeColor=#82b366;entryX=0;entryY=0.5;entryDx=0;entryDy=0;exitX=0.5;exitY=1;exitDx=0;exitDy=0;" edge="1" parent="1" source="zFJey2Iph64AuXWHVvu--217" target="zFJey2Iph64AuXWHVvu--186">
          <mxGeometry width="50" height="50" relative="1" as="geometry">
            <mxPoint x="40" y="450" as="sourcePoint" />
            <mxPoint y="520" as="targetPoint" />
            <Array as="points">
              <mxPoint x="40" y="520" />
            </Array>
          </mxGeometry>
        </mxCell>
        <mxCell id="zFJey2Iph64AuXWHVvu--186" value="" style="ellipse;whiteSpace=wrap;html=1;aspect=fixed;fillColor=#d5e8d4;strokeColor=#82b366;fontStyle=1;labelPosition=center;verticalLabelPosition=top;align=center;verticalAlign=bottom;" vertex="1" parent="1">
          <mxGeometry x="59.97000000000003" y="510" width="20" height="20" as="geometry" />
        </mxCell>
        <mxCell id="zFJey2Iph64AuXWHVvu--188" value="" style="ellipse;whiteSpace=wrap;html=1;aspect=fixed;fontSize=10;fillColor=#e1d5e7;strokeColor=#9673a6;" vertex="1" parent="1">
          <mxGeometry x="80" y="550" width="20" height="20" as="geometry" />
        </mxCell>
        <mxCell id="zFJey2Iph64AuXWHVvu--189" value="" style="ellipse;whiteSpace=wrap;html=1;aspect=fixed;fontSize=10;fillColor=#e1d5e7;strokeColor=#9673a6;" vertex="1" parent="1">
          <mxGeometry x="80" y="590" width="20" height="20" as="geometry" />
        </mxCell>
        <mxCell id="zFJey2Iph64AuXWHVvu--194" value="" style="endArrow=none;dashed=1;html=1;fillColor=#d5e8d4;strokeColor=#82b366;entryX=0;entryY=0.5;entryDx=0;entryDy=0;exitX=1;exitY=0.5;exitDx=0;exitDy=0;" edge="1" parent="1" source="zFJey2Iph64AuXWHVvu--186" target="zFJey2Iph64AuXWHVvu--192">
          <mxGeometry width="50" height="50" relative="1" as="geometry">
            <mxPoint x="109.97" y="490" as="sourcePoint" />
            <mxPoint x="229.97000000000003" y="490.5" as="targetPoint" />
            <Array as="points" />
          </mxGeometry>
        </mxCell>
        <mxCell id="zFJey2Iph64AuXWHVvu--198" value="" style="endArrow=none;dashed=1;html=1;fillColor=#d5e8d4;strokeColor=#82b366;entryX=0;entryY=0.5;entryDx=0;entryDy=0;exitX=1;exitY=0.5;exitDx=0;exitDy=0;" edge="1" parent="1" source="zFJey2Iph64AuXWHVvu--192">
          <mxGeometry width="50" height="50" relative="1" as="geometry">
            <mxPoint x="130.97" y="519.5" as="sourcePoint" />
            <mxPoint x="189.97000000000003" y="520" as="targetPoint" />
            <Array as="points" />
          </mxGeometry>
        </mxCell>
        <mxCell id="zFJey2Iph64AuXWHVvu--201" value="" style="ellipse;whiteSpace=wrap;html=1;aspect=fixed;fillColor=#d5e8d4;strokeColor=#82b366;fontStyle=1;labelPosition=center;verticalLabelPosition=top;align=center;verticalAlign=bottom;" vertex="1" parent="1">
          <mxGeometry x="252" y="510" width="20" height="20" as="geometry" />
        </mxCell>
        <mxCell id="zFJey2Iph64AuXWHVvu--202" value="" style="endArrow=none;dashed=1;html=1;fillColor=#d5e8d4;strokeColor=#82b366;entryX=0;entryY=0.5;entryDx=0;entryDy=0;exitX=1;exitY=0.5;exitDx=0;exitDy=0;" edge="1" parent="1">
          <mxGeometry width="50" height="50" relative="1" as="geometry">
            <mxPoint x="209.97000000000003" y="520" as="sourcePoint" />
            <mxPoint x="249.97000000000003" y="519.5" as="targetPoint" />
            <Array as="points" />
          </mxGeometry>
        </mxCell>
        <mxCell id="zFJey2Iph64AuXWHVvu--204" value="" style="endArrow=none;dashed=1;html=1;fillColor=#d5e8d4;strokeColor=#82b366;entryX=0;entryY=0.5;entryDx=0;entryDy=0;exitX=1;exitY=0.5;exitDx=0;exitDy=0;" edge="1" parent="1" source="zFJey2Iph64AuXWHVvu--201" target="zFJey2Iph64AuXWHVvu--181">
          <mxGeometry width="50" height="50" relative="1" as="geometry">
            <mxPoint x="305" y="509" as="sourcePoint" />
            <mxPoint x="615" y="509.5" as="targetPoint" />
            <Array as="points">
              <mxPoint x="290" y="520" />
              <mxPoint x="290" y="480" />
              <mxPoint x="290" y="440" />
            </Array>
          </mxGeometry>
        </mxCell>
        <mxCell id="zFJey2Iph64AuXWHVvu--206" value="1.0.1" style="ellipse;whiteSpace=wrap;html=1;aspect=fixed;fillColor=#dae8fc;strokeColor=#6c8ebf;fontStyle=1;labelPosition=center;verticalLabelPosition=top;align=center;verticalAlign=bottom;fontColor=#0066CC;" vertex="1" parent="1">
          <mxGeometry x="410" y="430" width="20" height="20" as="geometry" />
        </mxCell>
        <mxCell id="zFJey2Iph64AuXWHVvu--207" value="" style="ellipse;whiteSpace=wrap;html=1;aspect=fixed;fillColor=#f8cecc;strokeColor=#b85450;" vertex="1" parent="1">
          <mxGeometry x="349.97" y="470" width="20" height="20" as="geometry" />
        </mxCell>
        <mxCell id="zFJey2Iph64AuXWHVvu--208" value="" style="endArrow=none;dashed=1;html=1;fillColor=#f8cecc;strokeColor=#b85450;entryX=0;entryY=0.5;entryDx=0;entryDy=0;exitX=0.5;exitY=1;exitDx=0;exitDy=0;" edge="1" parent="1" source="zFJey2Iph64AuXWHVvu--181" target="zFJey2Iph64AuXWHVvu--207">
          <mxGeometry width="50" height="50" relative="1" as="geometry">
            <mxPoint x="314.97" y="530" as="sourcePoint" />
            <mxPoint x="624.97" y="530.5" as="targetPoint" />
            <Array as="points">
              <mxPoint x="320" y="480" />
            </Array>
          </mxGeometry>
        </mxCell>
        <mxCell id="zFJey2Iph64AuXWHVvu--209" value="" style="endArrow=none;dashed=1;html=1;fillColor=#f8cecc;strokeColor=#b85450;entryX=0;entryY=0.5;entryDx=0;entryDy=0;exitX=1;exitY=0.5;exitDx=0;exitDy=0;" edge="1" parent="1" source="zFJey2Iph64AuXWHVvu--207" target="zFJey2Iph64AuXWHVvu--206">
          <mxGeometry width="50" height="50" relative="1" as="geometry">
            <mxPoint x="330" y="559.5" as="sourcePoint" />
            <mxPoint x="640" y="560" as="targetPoint" />
            <Array as="points">
              <mxPoint x="390" y="480" />
              <mxPoint x="390" y="440" />
            </Array>
          </mxGeometry>
        </mxCell>
        <mxCell id="zFJey2Iph64AuXWHVvu--210" value="" style="endArrow=none;dashed=1;html=1;fillColor=#dae8fc;strokeColor=#6c8ebf;entryX=0;entryY=0.5;entryDx=0;entryDy=0;exitX=1;exitY=0.5;exitDx=0;exitDy=0;" edge="1" parent="1" source="zFJey2Iph64AuXWHVvu--181" target="zFJey2Iph64AuXWHVvu--206">
          <mxGeometry width="50" height="50" relative="1" as="geometry">
            <mxPoint x="390" y="510" as="sourcePoint" />
            <mxPoint x="700" y="510.5" as="targetPoint" />
            <Array as="points" />
          </mxGeometry>
        </mxCell>
        <mxCell id="zFJey2Iph64AuXWHVvu--214" value="" style="endArrow=none;dashed=1;html=1;fillColor=#d5e8d4;strokeColor=#82b366;entryX=0;entryY=0.5;entryDx=0;entryDy=0;exitX=1;exitY=0.5;exitDx=0;exitDy=0;" edge="1" parent="1" target="zFJey2Iph64AuXWHVvu--192">
          <mxGeometry width="50" height="50" relative="1" as="geometry">
            <mxPoint x="130.97" y="519.5" as="sourcePoint" />
            <mxPoint x="181.97" y="519.5" as="targetPoint" />
            <Array as="points" />
          </mxGeometry>
        </mxCell>
        <mxCell id="zFJey2Iph64AuXWHVvu--192" value="" style="ellipse;whiteSpace=wrap;html=1;aspect=fixed;fillColor=#d5e8d4;strokeColor=#82b366;fontStyle=1;labelPosition=center;verticalLabelPosition=top;align=center;verticalAlign=bottom;" vertex="1" parent="1">
          <mxGeometry x="126.97000000000003" y="510" width="20" height="20" as="geometry" />
        </mxCell>
        <mxCell id="zFJey2Iph64AuXWHVvu--215" value="" style="endArrow=none;dashed=1;html=1;fillColor=#e1d5e7;strokeColor=#9673a6;entryX=0;entryY=0.5;entryDx=0;entryDy=0;exitX=1;exitY=0.5;exitDx=0;exitDy=0;" edge="1" parent="1">
          <mxGeometry width="50" height="50" relative="1" as="geometry">
            <mxPoint x="105.97000000000003" y="560" as="sourcePoint" />
            <mxPoint x="126.97000000000003" y="520" as="targetPoint" />
            <Array as="points">
              <mxPoint x="116" y="560" />
              <mxPoint x="116" y="520" />
            </Array>
          </mxGeometry>
        </mxCell>
        <mxCell id="zFJey2Iph64AuXWHVvu--216" value="" style="endArrow=none;dashed=1;html=1;fillColor=#e1d5e7;strokeColor=#9673a6;entryX=0;entryY=0.5;entryDx=0;entryDy=0;exitX=0.5;exitY=1;exitDx=0;exitDy=0;" edge="1" parent="1">
          <mxGeometry width="50" height="50" relative="1" as="geometry">
            <mxPoint x="70.00000000000001" y="530" as="sourcePoint" />
            <mxPoint x="79.97000000000004" y="560" as="targetPoint" />
            <Array as="points">
              <mxPoint x="70.00000000000001" y="560" />
            </Array>
          </mxGeometry>
        </mxCell>
        <mxCell id="zFJey2Iph64AuXWHVvu--217" value="" style="ellipse;whiteSpace=wrap;html=1;aspect=fixed;fillColor=#dae8fc;strokeColor=#6c8ebf;fontStyle=1;labelPosition=center;verticalLabelPosition=top;align=center;verticalAlign=bottom;fontColor=#0066CC;" vertex="1" parent="1">
          <mxGeometry x="30.00000000000003" y="430" width="20" height="20" as="geometry" />
        </mxCell>
        <mxCell id="zFJey2Iph64AuXWHVvu--219" value="" style="endArrow=none;dashed=1;html=1;fillColor=#e1d5e7;strokeColor=#9673a6;exitX=0.5;exitY=1;exitDx=0;exitDy=0;entryX=0;entryY=0.5;entryDx=0;entryDy=0;" edge="1" parent="1" source="zFJey2Iph64AuXWHVvu--186" target="zFJey2Iph64AuXWHVvu--189">
          <mxGeometry width="50" height="50" relative="1" as="geometry">
            <mxPoint x="70.00000000000001" y="570" as="sourcePoint" />
            <mxPoint x="80" y="600" as="targetPoint" />
            <Array as="points">
              <mxPoint x="70.00000000000001" y="600" />
            </Array>
          </mxGeometry>
        </mxCell>
        <mxCell id="zFJey2Iph64AuXWHVvu--220" value="" style="endArrow=none;dashed=1;html=1;fillColor=#e1d5e7;strokeColor=#9673a6;entryX=0;entryY=0.5;entryDx=0;entryDy=0;exitX=1;exitY=0.5;exitDx=0;exitDy=0;" edge="1" parent="1" source="zFJey2Iph64AuXWHVvu--189" target="zFJey2Iph64AuXWHVvu--201">
          <mxGeometry width="50" height="50" relative="1" as="geometry">
            <mxPoint x="132" y="599.5" as="sourcePoint" />
            <mxPoint x="392" y="599.5" as="targetPoint" />
            <Array as="points">
              <mxPoint x="240" y="600" />
              <mxPoint x="240" y="520" />
            </Array>
          </mxGeometry>
        </mxCell>
        <mxCell id="zFJey2Iph64AuXWHVvu--221" value="" style="endArrow=none;dashed=1;html=1;fillColor=#e1d5e7;strokeColor=#9673a6;entryX=0;entryY=0.5;entryDx=0;entryDy=0;exitX=0.5;exitY=1;exitDx=0;exitDy=0;" edge="1" parent="1">
          <mxGeometry width="50" height="50" relative="1" as="geometry">
            <mxPoint x="137" y="530" as="sourcePoint" />
            <mxPoint x="146.97000000000003" y="560" as="targetPoint" />
            <Array as="points">
              <mxPoint x="137" y="560" />
            </Array>
          </mxGeometry>
        </mxCell>
        <mxCell id="zFJey2Iph64AuXWHVvu--222" value="" style="ellipse;whiteSpace=wrap;html=1;aspect=fixed;fontSize=10;fillColor=#e1d5e7;strokeColor=#9673a6;" vertex="1" parent="1">
          <mxGeometry x="146.97" y="550" width="20" height="20" as="geometry" />
        </mxCell>
        <mxCell id="zFJey2Iph64AuXWHVvu--223" value="" style="endArrow=none;dashed=1;html=1;fillColor=#e1d5e7;strokeColor=#9673a6;entryX=0;entryY=0.5;entryDx=0;entryDy=0;exitX=1;exitY=0.5;exitDx=0;exitDy=0;" edge="1" parent="1">
          <mxGeometry width="50" height="50" relative="1" as="geometry">
            <mxPoint x="166.97000000000003" y="560" as="sourcePoint" />
            <mxPoint x="187.97000000000003" y="520" as="targetPoint" />
            <Array as="points">
              <mxPoint x="177" y="560" />
              <mxPoint x="177" y="520" />
            </Array>
          </mxGeometry>
        </mxCell>
        <mxCell id="zFJey2Iph64AuXWHVvu--224" value="" style="ellipse;whiteSpace=wrap;html=1;aspect=fixed;fillColor=#d5e8d4;strokeColor=#82b366;fontStyle=1;labelPosition=center;verticalLabelPosition=top;align=center;verticalAlign=bottom;" vertex="1" parent="1">
          <mxGeometry x="189.97000000000003" y="510" width="20" height="20" as="geometry" />
        </mxCell>
        <mxCell id="zFJey2Iph64AuXWHVvu--226" value="" style="endArrow=none;dashed=1;html=1;fillColor=#d5e8d4;strokeColor=#82b366;entryX=0;entryY=0.5;entryDx=0;entryDy=0;exitX=0.5;exitY=1;exitDx=0;exitDy=0;" edge="1" parent="1">
          <mxGeometry width="50" height="50" relative="1" as="geometry">
            <mxPoint x="320" y="450" as="sourcePoint" />
            <mxPoint x="340" y="520" as="targetPoint" />
            <Array as="points">
              <mxPoint x="320" y="520" />
            </Array>
          </mxGeometry>
        </mxCell>
        <mxCell id="zFJey2Iph64AuXWHVvu--227" value="" style="ellipse;whiteSpace=wrap;html=1;aspect=fixed;fillColor=#d5e8d4;strokeColor=#82b366;fontStyle=1;labelPosition=center;verticalLabelPosition=top;align=center;verticalAlign=bottom;" vertex="1" parent="1">
          <mxGeometry x="332" y="510" width="20" height="20" as="geometry" />
        </mxCell>
        <mxCell id="zFJey2Iph64AuXWHVvu--228" value="" style="ellipse;whiteSpace=wrap;html=1;aspect=fixed;fillColor=#d5e8d4;strokeColor=#82b366;fontStyle=1;labelPosition=center;verticalLabelPosition=top;align=center;verticalAlign=bottom;" vertex="1" parent="1">
          <mxGeometry x="439.99999999999994" y="510" width="20" height="20" as="geometry" />
        </mxCell>
        <mxCell id="zFJey2Iph64AuXWHVvu--229" value="" style="endArrow=none;dashed=1;html=1;fillColor=#d5e8d4;strokeColor=#82b366;entryX=0;entryY=0.5;entryDx=0;entryDy=0;exitX=0.5;exitY=1;exitDx=0;exitDy=0;" edge="1" parent="1">
          <mxGeometry width="50" height="50" relative="1" as="geometry">
            <mxPoint x="420" y="450" as="sourcePoint" />
            <mxPoint x="440" y="520" as="targetPoint" />
            <Array as="points">
              <mxPoint x="420" y="520" />
            </Array>
          </mxGeometry>
        </mxCell>
        <mxCell id="zFJey2Iph64AuXWHVvu--230" value="" style="endArrow=none;dashed=1;html=1;fillColor=#d5e8d4;strokeColor=#82b366;entryX=0;entryY=0.5;entryDx=0;entryDy=0;exitX=1;exitY=0.5;exitDx=0;exitDy=0;" edge="1" parent="1" source="zFJey2Iph64AuXWHVvu--227" target="zFJey2Iph64AuXWHVvu--228">
          <mxGeometry width="50" height="50" relative="1" as="geometry">
            <mxPoint x="332" y="559.5" as="sourcePoint" />
            <mxPoint x="592" y="559.5" as="targetPoint" />
            <Array as="points" />
          </mxGeometry>
        </mxCell>
        <mxCell id="zFJey2Iph64AuXWHVvu--231" value="" style="endArrow=none;dashed=1;html=1;fillColor=#e1d5e7;strokeColor=#9673a6;entryX=0;entryY=0.5;entryDx=0;entryDy=0;exitX=0.5;exitY=1;exitDx=0;exitDy=0;" edge="1" parent="1">
          <mxGeometry width="50" height="50" relative="1" as="geometry">
            <mxPoint x="342.03" y="530" as="sourcePoint" />
            <mxPoint x="352" y="560" as="targetPoint" />
            <Array as="points">
              <mxPoint x="342.03" y="560" />
            </Array>
          </mxGeometry>
        </mxCell>
        <mxCell id="zFJey2Iph64AuXWHVvu--232" value="" style="ellipse;whiteSpace=wrap;html=1;aspect=fixed;fontSize=10;fillColor=#e1d5e7;strokeColor=#9673a6;" vertex="1" parent="1">
          <mxGeometry x="352" y="550" width="20" height="20" as="geometry" />
        </mxCell>
        <mxCell id="zFJey2Iph64AuXWHVvu--236" value="" style="endArrow=none;dashed=1;html=1;fillColor=#d5e8d4;strokeColor=#82b366;entryX=0;entryY=0.5;entryDx=0;entryDy=0;exitX=1;exitY=0.5;exitDx=0;exitDy=0;" edge="1" parent="1" source="zFJey2Iph64AuXWHVvu--228" target="zFJey2Iph64AuXWHVvu--241">
          <mxGeometry width="50" height="50" relative="1" as="geometry">
            <mxPoint x="510" y="590" as="sourcePoint" />
            <mxPoint x="510" y="520" as="targetPoint" />
            <Array as="points" />
          </mxGeometry>
        </mxCell>
        <mxCell id="zFJey2Iph64AuXWHVvu--237" value="" style="endArrow=none;dashed=1;html=1;fillColor=#dae8fc;strokeColor=#6c8ebf;exitX=1;exitY=0.5;exitDx=0;exitDy=0;entryX=0;entryY=0.5;entryDx=0;entryDy=0;" edge="1" parent="1" source="zFJey2Iph64AuXWHVvu--206" target="zFJey2Iph64AuXWHVvu--238">
          <mxGeometry width="50" height="50" relative="1" as="geometry">
            <mxPoint x="450" y="449" as="sourcePoint" />
            <mxPoint x="560" y="440" as="targetPoint" />
            <Array as="points" />
          </mxGeometry>
        </mxCell>
        <mxCell id="zFJey2Iph64AuXWHVvu--238" value="Main" style="text;html=1;strokeColor=#6c8ebf;fillColor=#dae8fc;align=center;verticalAlign=middle;whiteSpace=wrap;rounded=0;" vertex="1" parent="1">
          <mxGeometry x="560" y="430" width="90" height="20" as="geometry" />
        </mxCell>
        <mxCell id="zFJey2Iph64AuXWHVvu--239" value="Hotfix" style="text;html=1;strokeColor=#b85450;fillColor=#f8cecc;align=center;verticalAlign=middle;whiteSpace=wrap;rounded=0;" vertex="1" parent="1">
          <mxGeometry x="560" y="470" width="90" height="20" as="geometry" />
        </mxCell>
        <mxCell id="zFJey2Iph64AuXWHVvu--241" value="Release/v" style="text;html=1;strokeColor=#82b366;fillColor=#d5e8d4;align=center;verticalAlign=middle;whiteSpace=wrap;rounded=0;" vertex="1" parent="1">
          <mxGeometry x="560" y="510" width="90" height="20" as="geometry" />
        </mxCell>
        <mxCell id="zFJey2Iph64AuXWHVvu--242" value="PBI" style="text;html=1;strokeColor=#9673a6;fillColor=#e1d5e7;align=center;verticalAlign=middle;whiteSpace=wrap;rounded=0;" vertex="1" parent="1">
          <mxGeometry x="560" y="550" width="90" height="20" as="geometry" />
        </mxCell>
        <mxCell id="zFJey2Iph64AuXWHVvu--243" value="" style="endArrow=none;dashed=1;html=1;fillColor=#e1d5e7;strokeColor=#9673a6;entryX=0;entryY=0.5;entryDx=0;entryDy=0;exitX=1;exitY=0.5;exitDx=0;exitDy=0;" edge="1" parent="1" source="zFJey2Iph64AuXWHVvu--232" target="zFJey2Iph64AuXWHVvu--242">
          <mxGeometry width="50" height="50" relative="1" as="geometry">
            <mxPoint x="389.97" y="630" as="sourcePoint" />
            <mxPoint x="649.97" y="630" as="targetPoint" />
            <Array as="points" />
          </mxGeometry>
        </mxCell>
      </root>
    </mxGraphModel>
  </diagram>
</mxfile>
